<svg width="18" height="18" viewBox="0 0 18 18" fill="none" xmlns="http://www.w3.org/2000/svg">
    <path fill-rule="evenodd" clip-rule="evenodd" d="M8.865 2.0625C8.013 2.0625 7.25416 2.45979 6.76284 3.08148C6.62396 3.25721 6.39406 3.33379 6.17754 3.27646C5.95876 3.21853 5.72845 3.1875 5.49 3.1875C4.01126 3.1875 2.8125 4.38627 2.8125 5.865C2.8125 7.16935 3.74574 8.25695 4.98114 8.49433C5.24603 8.54523 5.4375 8.77699 5.4375 9.04672V15C5.4375 15.1036 5.52144 15.1875 5.625 15.1875H12.375C12.4786 15.1875 12.5625 15.1036 12.5625 15V9.04672C12.5625 8.77699 12.754 8.54523 13.0189 8.49433C14.2543 8.25695 15.1875 7.16935 15.1875 5.865C15.1875 4.38627 13.9887 3.1875 12.51 3.1875C12.2051 3.1875 11.9133 3.23822 11.6418 3.33122C11.4111 3.41028 11.1557 3.33159 11.0094 3.13637C10.5201 2.48332 9.74176 2.0625 8.865 2.0625ZM6.11515 2.11373C6.80694 1.38968 7.78328 0.9375 8.865 0.9375C9.96896 0.9375 10.963 1.40841 11.6571 2.15866C11.9316 2.09569 12.2172 2.0625 12.51 2.0625C14.61 2.0625 16.3125 3.76495 16.3125 5.865C16.3125 7.55444 15.2112 8.98566 13.6875 9.48152V15C13.6875 15.7249 13.0999 16.3125 12.375 16.3125H5.625C4.90011 16.3125 4.3125 15.7249 4.3125 15V9.48152C2.7888 8.98566 1.6875 7.55444 1.6875 5.865C1.6875 3.76495 3.38994 2.0625 5.49 2.0625C5.70263 2.0625 5.91149 2.08001 6.11515 2.11373Z" fill="#717D8A"/>
    <path fill-rule="evenodd" clip-rule="evenodd" d="M4.3125 11.625C4.3125 11.3143 4.56434 11.0625 4.875 11.0625H13.125C13.4357 11.0625 13.6875 11.3143 13.6875 11.625C13.6875 11.9357 13.4357 12.1875 13.125 12.1875H4.875C4.56434 12.1875 4.3125 11.9357 4.3125 11.625Z" fill="#717D8A"/>
    <path fill-rule="evenodd" clip-rule="evenodd" d="M7.5 8.8125C7.81066 8.8125 8.0625 9.06434 8.0625 9.375V11.625C8.0625 11.9357 7.81066 12.1875 7.5 12.1875C7.18934 12.1875 6.9375 11.9357 6.9375 11.625V9.375C6.9375 9.06434 7.18934 8.8125 7.5 8.8125Z" fill="#717D8A"/>
    <path fill-rule="evenodd" clip-rule="evenodd" d="M13.125 9.9375C13.4357 9.9375 13.6875 10.1893 13.6875 10.5V12.75C13.6875 13.0607 13.4357 13.3125 13.125 13.3125C12.8143 13.3125 12.5625 13.0607 12.5625 12.75V10.5C12.5625 10.1893 12.8143 9.9375 13.125 9.9375Z" fill="#717D8A"/>
    <path fill-rule="evenodd" clip-rule="evenodd" d="M4.875 9.9375C5.18566 9.9375 5.4375 10.1893 5.4375 10.5V12.75C5.4375 13.0607 5.18566 13.3125 4.875 13.3125C4.56434 13.3125 4.3125 13.0607 4.3125 12.75V10.5C4.3125 10.1893 4.56434 9.9375 4.875 9.9375Z" fill="#717D8A"/>
</svg>
    