<svg width="24" height="24" viewBox="0 0 24 24" fill="none" xmlns="http://www.w3.org/2000/svg">
<path d="M12.86 11.92C12.5 11.92 12.1333 11.8533 11.8467 11.7267L7.91333 9.97999C6.91333 9.53332 6.76666 8.93332 6.76666 8.60666C6.76666 8.27999 6.91333 7.67999 7.91333 7.23332L11.8467 5.48666C12.4267 5.22666 13.3 5.22666 13.88 5.48666L17.82 7.23332C18.8133 7.67332 18.9667 8.27999 18.9667 8.60666C18.9667 8.93332 18.82 9.53332 17.82 9.97999L13.88 11.7267C13.5867 11.86 13.2267 11.92 12.86 11.92ZM12.86 6.29332C12.6333 6.29332 12.4133 6.32666 12.2533 6.39999L8.32 8.14666C7.91333 8.33332 7.76666 8.51999 7.76666 8.60666C7.76666 8.69332 7.91333 8.88666 8.31333 9.06666L12.2467 10.8133C12.5667 10.9533 13.1467 10.9533 13.4667 10.8133L17.4067 9.06666C17.8133 8.88666 17.96 8.69332 17.96 8.60666C17.96 8.51999 17.8133 8.32666 17.4067 8.14666L13.4733 6.39999C13.3133 6.33332 13.0867 6.29332 12.86 6.29332Z" fill="#373F47"/>
<path d="M13 15.3933C12.7467 15.3933 12.4933 15.34 12.2533 15.2333L7.72667 13.22C7.04 12.92 6.5 12.0867 6.5 11.3333C6.5 11.06 6.72667 10.8333 7 10.8333C7.27333 10.8333 7.5 11.06 7.5 11.3333C7.5 11.7 7.8 12.16 8.13333 12.3133L12.66 14.3267C12.8733 14.42 13.12 14.42 13.34 14.3267L17.8667 12.3133C18.2 12.1667 18.5 11.7 18.5 11.3333C18.5 11.06 18.7267 10.8333 19 10.8333C19.2733 10.8333 19.5 11.06 19.5 11.3333C19.5 12.0867 18.96 12.92 18.2733 13.2267L13.7467 15.24C13.5067 15.34 13.2533 15.3933 13 15.3933Z" fill="#373F47"/>
<path d="M13 18.7267C12.7467 18.7267 12.4933 18.6733 12.2533 18.5667L7.72667 16.5533C6.98 16.22 6.5 15.48 6.5 14.66C6.5 14.3867 6.72667 14.16 7 14.16C7.27333 14.16 7.5 14.3933 7.5 14.6667C7.5 15.0867 7.74667 15.4733 8.13333 15.6467L12.66 17.66C12.8733 17.7533 13.12 17.7533 13.34 17.66L17.8667 15.6467C18.2533 15.4733 18.5 15.0933 18.5 14.6667C18.5 14.3933 18.7267 14.1667 19 14.1667C19.2733 14.1667 19.5 14.3933 19.5 14.6667C19.5 15.4867 19.02 16.2267 18.2733 16.56L13.7467 18.5733C13.5067 18.6733 13.2533 18.7267 13 18.7267Z" fill="#373F47"/>
</svg>
