<svg width="24" height="24" viewBox="0 0 24 24" fill="none" xmlns="http://www.w3.org/2000/svg">
<path d="M15.2264 17.9957H8.55974C6.44641 17.9957 4.72641 16.2757 4.72641 14.1623V7.77566C4.72641 6.909 5.12641 6.609 5.36641 6.509C5.60641 6.409 6.09974 6.33566 6.71308 6.949L8.43974 8.67566C8.50641 8.74233 8.61308 8.74233 8.67308 8.67566L11.0664 6.28233C11.5064 5.84233 12.2797 5.84233 12.7131 6.28233L15.1064 8.67566C15.1731 8.74233 15.2797 8.74233 15.3397 8.67566L17.0664 6.949C17.6797 6.33566 18.1731 6.41566 18.4131 6.509C18.6531 6.609 19.0531 6.90233 19.0531 7.77566V14.169C19.0597 16.4557 17.5197 17.9957 15.2264 17.9957ZM5.76641 7.46233C5.74641 7.51566 5.72641 7.61566 5.72641 7.77566V14.169C5.72641 15.729 6.99974 17.0023 8.55974 17.0023H15.2264C16.9464 17.0023 18.0597 15.889 18.0597 14.169V7.77566C18.0597 7.61566 18.0397 7.52233 18.0197 7.469C17.9664 7.49566 17.8864 7.549 17.7731 7.66233L16.0464 9.389C15.6064 9.829 14.8331 9.829 14.3997 9.389L12.0064 6.99566C11.9397 6.929 11.8331 6.929 11.7731 6.99566L9.38641 9.38233C8.94641 9.82233 8.17308 9.82233 7.73974 9.38233L6.01308 7.65566C5.89974 7.54233 5.81308 7.489 5.76641 7.46233Z" fill="#373F47"/>
</svg>
