<svg width="24" height="24" viewBox="0 0 24 24" fill="none" xmlns="http://www.w3.org/2000/svg">
<g opacity="0.9">
<path d="M9.78125 13.5532C9.78125 14.4132 10.4413 15.1066 11.2613 15.1066H12.9346C13.6479 15.1066 14.2279 14.4999 14.2279 13.7533C14.2279 12.9399 13.8746 12.6532 13.3479 12.4666L10.6612 11.5332C10.1346 11.3466 9.78125 11.0599 9.78125 10.2466C9.78125 9.49992 10.3612 8.89325 11.0746 8.89325H12.7479C13.5679 8.89325 14.2279 9.58658 14.2279 10.4466" stroke="#373F47" stroke-linecap="round" stroke-linejoin="round"/>
<path d="M12 8V16" stroke="#373F47" stroke-linecap="round" stroke-linejoin="round"/>
<path d="M12 18.6666C15.6819 18.6666 18.6667 15.6819 18.6667 12C18.6667 8.31808 15.6819 5.33331 12 5.33331C8.31811 5.33331 5.33334 8.31808 5.33334 12C5.33334 15.6819 8.31811 18.6666 12 18.6666Z" stroke="#373F47" stroke-linecap="round" stroke-linejoin="round"/>
</g>
</svg>
