<svg width="24" height="24" viewBox="0 0 24 24" fill="none" xmlns="http://www.w3.org/2000/svg">
<g opacity="0.9">
<path d="M6.65926 13.7736L5.64594 12.7603C5.2326 12.347 5.2326 11.667 5.64594 11.2536L6.65926 10.2403C6.8326 10.0669 6.9726 9.72694 6.9726 9.48694V8.05359C6.9726 7.46692 7.4526 6.98694 8.03927 6.98694H9.4726C9.7126 6.98694 10.0526 6.84696 10.2259 6.67363L11.2393 5.66028C11.6526 5.24695 12.3326 5.24695 12.7459 5.66028L13.7593 6.67363C13.9326 6.84696 14.2726 6.98694 14.5126 6.98694H15.9459C16.5326 6.98694 17.0126 7.46692 17.0126 8.05359V9.48694C17.0126 9.72694 17.1526 10.0669 17.3259 10.2403L18.3393 11.2536C18.7526 11.667 18.7526 12.347 18.3393 12.7603L17.3259 13.7736C17.1526 13.947 17.0126 14.287 17.0126 14.527V15.9602C17.0126 16.5469 16.5326 17.027 15.9459 17.027H14.5126C14.2726 17.027 13.9326 17.167 13.7593 17.3403L12.7459 18.3536C12.3326 18.767 11.6526 18.767 11.2393 18.3536L10.2259 17.3403C10.0526 17.167 9.7126 17.027 9.4726 17.027H8.03927C7.4526 17.027 6.9726 16.5469 6.9726 15.9602V14.527C6.9726 14.2803 6.8326 13.9403 6.65926 13.7736Z" stroke="#373F47" stroke-linecap="round" stroke-linejoin="round"/>
<path d="M10 14L14 10" stroke="#373F47" stroke-linecap="round" stroke-linejoin="round"/>
<path d="M13.663 13.6666H13.669" stroke="#373F47" stroke-linecap="round" stroke-linejoin="round"/>
<path d="M10.3297 10.3333H10.3357" stroke="#373F47" stroke-linecap="round" stroke-linejoin="round"/>
</g>
</svg>
