<svg width="201" height="165" viewBox="0 0 201 165" fill="none" xmlns="http://www.w3.org/2000/svg">
<path d="M100.171 164.773C140.888 164.773 173.895 158.593 173.895 150.97C173.895 143.347 140.888 137.167 100.171 137.167C59.4538 137.167 26.4463 143.347 26.4463 150.97C26.4463 158.593 59.4538 164.773 100.171 164.773Z" fill="#F5F5F7" fill-opacity="0.8"/>
<path fill-rule="evenodd" clip-rule="evenodd" d="M159.15 110.421L133.133 78.3386C131.885 76.8284 130.06 75.9143 128.138 75.9143H72.201C70.2806 75.9143 68.4559 76.8284 67.2076 78.3386L41.1919 110.421V127.182H159.151V110.421H159.15Z" fill="#AEB8C2"/>
<path fill-rule="evenodd" clip-rule="evenodd" d="M63.234 34.5066H137.106C138.26 34.5066 139.366 34.9658 140.182 35.7831C140.998 36.6004 141.456 37.709 141.456 38.8648V140.569C141.456 141.725 140.998 142.834 140.182 143.651C139.366 144.468 138.26 144.927 137.106 144.927H63.234C62.0804 144.927 60.974 144.468 60.1583 143.651C59.3426 142.834 58.8843 141.725 58.8843 140.569V38.8648C58.8843 37.709 59.3426 36.6004 60.1583 35.7831C60.974 34.9658 62.0804 34.5066 63.234 34.5066V34.5066Z" fill="#F5F5F7"/>
<path fill-rule="evenodd" clip-rule="evenodd" d="M72.8555 45.3511H127.485C128.062 45.3511 128.615 45.5807 129.023 45.9893C129.43 46.398 129.66 46.9523 129.66 47.5302V74.7225C129.66 75.3004 129.43 75.8547 129.023 76.2633C128.615 76.672 128.062 76.9016 127.485 76.9016H72.8555C72.2787 76.9016 71.7255 76.672 71.3177 76.2633C70.9098 75.8547 70.6807 75.3004 70.6807 74.7225V47.5302C70.6807 46.9523 70.9098 46.398 71.3177 45.9893C71.7255 45.5807 72.2787 45.3511 72.8555 45.3511ZM73.1404 88.731H127.2C127.852 88.731 128.478 88.9907 128.939 89.4529C129.4 89.9151 129.66 90.5419 129.66 91.1956C129.66 91.8492 129.4 92.4761 128.939 92.9383C128.478 93.4005 127.852 93.6602 127.2 93.6602H73.1404C72.4881 93.6602 71.8624 93.4005 71.4011 92.9383C70.9398 92.4761 70.6807 91.8492 70.6807 91.1956C70.6807 90.5419 70.9398 89.9151 71.4011 89.4529C71.8624 88.9907 72.4881 88.731 73.1404 88.731ZM73.1404 101.548H127.2C127.852 101.548 128.478 101.807 128.94 102.27C129.401 102.732 129.66 103.359 129.66 104.013C129.66 104.666 129.401 105.293 128.94 105.756C128.478 106.218 127.852 106.478 127.2 106.478H73.1404C72.4879 106.478 71.8621 106.218 71.4007 105.756C70.9393 105.293 70.6801 104.666 70.6801 104.013C70.6801 103.359 70.9393 102.732 71.4007 102.27C71.8621 101.807 72.4879 101.548 73.1404 101.548ZM158.909 148.946C158.067 152.292 155.107 154.786 151.585 154.786H48.7548C45.2337 154.786 42.2738 152.291 41.4321 148.946C41.2716 148.308 41.1905 147.653 41.1907 146.995V110.422H69.8096C72.9708 110.422 75.5186 113.089 75.5186 116.327V116.371C75.5186 119.608 78.0959 122.222 81.257 122.222H119.083C122.244 122.222 124.822 119.584 124.822 116.346V116.333C124.822 113.095 127.369 110.421 130.531 110.421H159.15V146.997C159.15 147.669 159.066 148.321 158.909 148.946Z" fill="#DCE0E6"/>
<path fill-rule="evenodd" clip-rule="evenodd" d="M162.507 36.2738L155.079 39.1611C154.889 39.2355 154.681 39.2543 154.48 39.2156C154.279 39.1768 154.093 39.0819 153.943 38.9419C153.793 38.8019 153.686 38.6225 153.634 38.4241C153.582 38.2258 153.586 38.0168 153.647 37.821L155.754 31.058C152.938 27.8504 151.285 23.9388 151.285 19.7178C151.285 8.82765 162.288 0 175.861 0C189.431 0 200.435 8.82765 200.435 19.7178C200.435 30.608 189.432 39.4357 175.86 39.4357C170.936 39.4357 166.352 38.2742 162.507 36.2738Z" fill="#DCE0E6"/>
<path d="M185.542 23.2785C187.253 23.2785 188.64 21.9053 188.64 20.2114C188.64 18.5175 187.253 17.1443 185.542 17.1443C183.831 17.1443 182.443 18.5175 182.443 20.2114C182.443 21.9053 183.831 23.2785 185.542 23.2785Z" fill="white"/>
<path fill-rule="evenodd" clip-rule="evenodd" d="M169.278 22.895H163.082L166.233 17.5278L169.278 22.895ZM173.15 17.5278H178.571V22.895H173.15V17.5278Z" fill="white"/>
</svg>
