<svg width="24" height="24" viewBox="0 0 24 24" fill="none" xmlns="http://www.w3.org/2000/svg">
<path d="M15.3199 18.7807H8.65328C5.71328 18.7807 4.81995 17.8873 4.81995 14.9473V8.28066C4.81995 5.34066 5.71328 4.44733 8.65328 4.44733H9.65328C10.8199 4.44733 11.1866 4.82733 11.6533 5.44733L12.6533 6.78066C12.8733 7.07399 12.9066 7.11399 13.3199 7.11399H15.3199C18.2599 7.11399 19.1533 8.00733 19.1533 10.9473V14.9473C19.1533 17.8873 18.2599 18.7807 15.3199 18.7807ZM8.65328 5.44733C6.26661 5.44733 5.81995 5.90066 5.81995 8.28066V14.9473C5.81995 17.3273 6.26661 17.7807 8.65328 17.7807H15.3199C17.7066 17.7807 18.1533 17.3273 18.1533 14.9473V10.9473C18.1533 8.56733 17.7066 8.11399 15.3199 8.11399H13.3199C12.4666 8.11399 12.1866 7.82066 11.8533 7.38066L10.8533 6.04733C10.5066 5.58733 10.3999 5.44733 9.65328 5.44733H8.65328Z" fill="#373F47"/>
<path d="M17.3199 8.36733C17.0466 8.36733 16.8199 8.14066 16.8199 7.86733V6.94733C16.8199 5.89399 16.3733 5.44733 15.3199 5.44733H9.31995C9.04661 5.44733 8.81995 5.22066 8.81995 4.94733C8.81995 4.67399 9.04661 4.44733 9.31995 4.44733H15.3199C16.9333 4.44733 17.8199 5.33399 17.8199 6.94733V7.86733C17.8199 8.14066 17.5933 8.36733 17.3199 8.36733Z" fill="#373F47"/>
</svg>
