<svg width="24" height="24" viewBox="0 0 24 24" fill="none" xmlns="http://www.w3.org/2000/svg">
<g opacity="0.9">
<path d="M16.6466 18.6667H7.31323C5.31323 18.6667 5.31323 17.7667 5.31323 16.6667V16C5.31323 15.6334 5.61323 15.3334 5.9799 15.3334H17.9799C18.3466 15.3334 18.6466 15.6334 18.6466 16V16.6667C18.6466 17.7667 18.6466 18.6667 16.6466 18.6667Z" stroke="#373F47" stroke-linecap="round" stroke-linejoin="round"/>
<path d="M17.8133 12.6667V15.3333H6.17999V12.6667C6.17999 10.1067 7.98666 7.96668 10.3933 7.45334C10.7533 7.37334 11.1267 7.33334 11.5133 7.33334H12.48C12.8667 7.33334 13.2467 7.37334 13.6067 7.45334C16.0133 7.97334 17.8133 10.1067 17.8133 12.6667Z" stroke="#373F47" stroke-linecap="round" stroke-linejoin="round"/>
<path d="M13.6667 7.00001C13.6667 7.16001 13.6467 7.30668 13.6067 7.45334C13.2467 7.37334 12.8667 7.33334 12.48 7.33334H11.5133C11.1267 7.33334 10.7533 7.37334 10.3933 7.45334C10.3533 7.30668 10.3333 7.16001 10.3333 7.00001C10.3333 6.08001 11.08 5.33334 12 5.33334C12.92 5.33334 13.6667 6.08001 13.6667 7.00001Z" stroke="#373F47" stroke-linecap="round" stroke-linejoin="round"/>
<path d="M14 11.3333H10" stroke="#373F47" stroke-linecap="round" stroke-linejoin="round"/>
</g>
</svg>
