<svg width="24" height="24" viewBox="0 0 24 24" fill="none" xmlns="http://www.w3.org/2000/svg">
<path d="M10.5891 8.37984L10.3321 7.95099L10.3319 7.9511L10.5891 8.37984ZM10.6667 5.33334V4.83334C10.3905 4.83334 10.1667 5.0572 10.1667 5.33334H10.6667ZM13.3333 5.33334H13.8333C13.8333 5.0572 13.6095 4.83334 13.3333 4.83334V5.33334ZM13.4109 8.37984L13.6681 7.9511L13.6679 7.95099L13.4109 8.37984ZM9.5 11.1866C9.5 10.2125 10.0111 9.30979 10.8464 8.80858L10.3319 7.9511C9.19538 8.63303 8.5 9.86121 8.5 11.1866H9.5ZM10.8462 8.80869C11.0451 8.68946 11.1667 8.4746 11.1667 8.24294H10.1667C10.1667 8.12342 10.2294 8.01256 10.3321 7.95099L10.8462 8.80869ZM11.1667 8.24294V5.33334H10.1667V8.24294H11.1667ZM10.6667 5.83334H13.3333V4.83334H10.6667V5.83334ZM12.8333 5.33334V8.24294H13.8333V5.33334H12.8333ZM12.8333 8.24294C12.8333 8.4746 12.9549 8.68946 13.1538 8.80869L13.6679 7.95099C13.7706 8.01256 13.8333 8.12342 13.8333 8.24294H12.8333ZM13.1536 8.80858C13.9889 9.30979 14.5 10.2125 14.5 11.1866H15.5C15.5 9.86121 14.8046 8.63303 13.6681 7.9511L13.1536 8.80858ZM14.5 11.1866V18H15.5V11.1866H14.5ZM14.5 18C14.5 18.0921 14.4254 18.1667 14.3333 18.1667V19.1667C14.9777 19.1667 15.5 18.6444 15.5 18H14.5ZM14.3333 18.1667H9.66667V19.1667H14.3333V18.1667ZM9.66667 18.1667C9.57461 18.1667 9.5 18.0921 9.5 18H8.5C8.5 18.6444 9.02232 19.1667 9.66667 19.1667V18.1667ZM9.5 18V11.1866H8.5V18H9.5Z" fill="#373F47"/>
<path d="M10.6667 6.83334C10.3905 6.83334 10.1667 7.0572 10.1667 7.33334C10.1667 7.60949 10.3905 7.83334 10.6667 7.83334V6.83334ZM13.3333 7.83334C13.6095 7.83334 13.8333 7.60949 13.8333 7.33334C13.8333 7.0572 13.6095 6.83334 13.3333 6.83334V7.83334ZM10.6667 7.83334H13.3333V6.83334H10.6667V7.83334Z" fill="#373F47"/>
<path d="M15 12.1667C15.2761 12.1667 15.5 11.9428 15.5 11.6667C15.5 11.3905 15.2761 11.1667 15 11.1667V12.1667ZM12 11.6667V11.1667C11.7239 11.1667 11.5 11.3905 11.5 11.6667H12ZM12 16.6667H11.5C11.5 16.9428 11.7239 17.1667 12 17.1667V16.6667ZM15 17.1667C15.2761 17.1667 15.5 16.9428 15.5 16.6667C15.5 16.3905 15.2761 16.1667 15 16.1667V17.1667ZM15 11.1667H12V12.1667H15V11.1667ZM11.5 11.6667V16.6667H12.5V11.6667H11.5ZM12 17.1667H15V16.1667H12V17.1667Z" fill="#373F47"/>
<path d="M15 17.3333V11" stroke="#373F47" stroke-linecap="round" stroke-linejoin="round"/>
<path d="M10.6667 7.99999V6.66666" stroke="#373F47" stroke-linecap="round" stroke-linejoin="round"/>
<path d="M13.3333 7.99999V6.66666" stroke="#373F47" stroke-linecap="round" stroke-linejoin="round"/>
</svg>
