<svg width="24" height="24" viewBox="0 0 24 24" fill="none" xmlns="http://www.w3.org/2000/svg">
<g opacity="0.9">
<path fill-rule="evenodd" clip-rule="evenodd" d="M9.83334 14.6667C9.83334 14.3905 10.0572 14.1667 10.3333 14.1667H13.6667C13.9428 14.1667 14.1667 14.3905 14.1667 14.6667V17.6667C14.1667 17.9428 13.9428 18.1667 13.6667 18.1667H10.3333C10.0572 18.1667 9.83334 17.9428 9.83334 17.6667V14.6667ZM10.8333 15.1667V17.1667H13.1667V15.1667H10.8333Z" fill="#373F47"/>
<path fill-rule="evenodd" clip-rule="evenodd" d="M6.33332 7.16669C6.24128 7.16669 6.16666 7.24131 6.16666 7.33335V14C6.16666 14.0921 6.24128 14.1667 6.33332 14.1667H17.6667C17.7587 14.1667 17.8333 14.0921 17.8333 14V7.33335C17.8333 7.24131 17.7587 7.16669 17.6667 7.16669H6.33332ZM5.16666 7.33335C5.16666 6.68902 5.68899 6.16669 6.33332 6.16669H17.6667C18.311 6.16669 18.8333 6.68902 18.8333 7.33335V14C18.8333 14.6444 18.311 15.1667 17.6667 15.1667H6.33332C5.68899 15.1667 5.16666 14.6444 5.16666 14V7.33335Z" fill="#373F47"/>
<path fill-rule="evenodd" clip-rule="evenodd" d="M10.8333 13C10.8333 12.7239 11.0572 12.5 11.3333 12.5H12.6667C12.9428 12.5 13.1667 12.7239 13.1667 13C13.1667 13.2761 12.9428 13.5 12.6667 13.5H11.3333C11.0572 13.5 10.8333 13.2761 10.8333 13Z" fill="#373F47"/>
<path fill-rule="evenodd" clip-rule="evenodd" d="M8.16666 17.6667C8.16666 17.3905 8.39051 17.1667 8.66666 17.1667H15.3333C15.6095 17.1667 15.8333 17.3905 15.8333 17.6667C15.8333 17.9428 15.6095 18.1667 15.3333 18.1667H8.66666C8.39051 18.1667 8.16666 17.9428 8.16666 17.6667Z" fill="#373F47"/>
</g>
</svg>
