<svg width="24" height="24" viewBox="0 0 24 24" fill="none" xmlns="http://www.w3.org/2000/svg">
<path d="M12.3001 18.574C11.3601 18.574 10.4134 18.214 9.70008 17.5007L6.68008 14.4807C5.94675 13.7473 5.56008 12.734 5.60675 11.7007L5.76675 8.36067C5.84008 6.76733 7.10008 5.50733 8.70008 5.42733L12.0334 5.26733C13.0734 5.22067 14.0801 5.60733 14.8134 6.34067L17.8334 9.36067C19.2667 10.794 19.2667 13.134 17.8334 14.5673L14.9067 17.494C14.1867 18.214 13.2467 18.574 12.3001 18.574ZM7.38675 13.7673L10.4067 16.7873C11.4534 17.834 13.1534 17.834 14.2001 16.7873L17.1267 13.8607C18.1734 12.814 18.1734 11.114 17.1267 10.0673L14.1001 7.054C13.5667 6.52067 12.8401 6.24067 12.0734 6.274L8.74008 6.434C7.66008 6.48067 6.81342 7.32733 6.76008 8.40733L6.60008 11.7473C6.56675 12.494 6.85342 13.234 7.38675 13.7673Z" fill="#373F47"/>
<path d="M10.5867 12.4207C9.39341 12.4207 8.42007 11.4473 8.42007 10.254C8.42007 9.06067 9.39341 8.08734 10.5867 8.08734C11.7801 8.08734 12.7534 9.06067 12.7534 10.254C12.7534 11.4473 11.7801 12.4207 10.5867 12.4207ZM10.5867 9.08734C9.94674 9.08734 9.42007 9.61401 9.42007 10.254C9.42007 10.894 9.94674 11.4207 10.5867 11.4207C11.2267 11.4207 11.7534 10.894 11.7534 10.254C11.7534 9.61401 11.2267 9.08734 10.5867 9.08734Z" fill="#373F47"/>
<path d="M12.92 15.754C12.7933 15.754 12.6666 15.7073 12.5666 15.6073C12.3733 15.414 12.3733 15.094 12.5666 14.9007L15.2333 12.234C15.4266 12.0407 15.7466 12.0407 15.94 12.234C16.1333 12.4273 16.1333 12.7473 15.94 12.9407L13.2733 15.6073C13.1733 15.7073 13.0466 15.754 12.92 15.754Z" fill="#373F47"/>
</svg>
