<svg width="24" height="24" viewBox="0 0 24 24" fill="none" xmlns="http://www.w3.org/2000/svg">
<path d="M14.0471 18.2733C13.7604 18.2733 13.4738 18.2133 13.2404 18.1L9.74044 16.3467C9.54044 16.2466 9.14711 16.2533 8.95377 16.3666L7.38044 17.2667C6.70044 17.6533 6.00044 17.7067 5.47378 17.3933C4.94044 17.0866 4.64044 16.46 4.64044 15.6733V9.19332C4.64044 8.58665 5.04044 7.89998 5.56711 7.59998L8.45377 5.94665C8.94044 5.66665 9.68044 5.64665 10.1804 5.89998L13.6804 7.65332C13.8804 7.75332 14.2671 7.73998 14.4671 7.63332L16.0338 6.73998C16.7138 6.35332 17.4138 6.29998 17.9404 6.61332C18.4738 6.91998 18.7738 7.54665 18.7738 8.33332V14.82C18.7738 15.4266 18.3738 16.1133 17.8471 16.4133L14.9604 18.0667C14.7071 18.2 14.3738 18.2733 14.0471 18.2733ZM9.37378 15.28C9.66044 15.28 9.94711 15.34 10.1804 15.4533L13.6804 17.2066C13.8804 17.3067 14.2671 17.2933 14.4671 17.1867L17.3538 15.5333C17.5671 15.4133 17.7738 15.0533 17.7738 14.8133V8.32665C17.7738 7.90665 17.6538 7.59332 17.4338 7.47332C17.2204 7.35332 16.8871 7.39998 16.5271 7.60665L14.9604 8.49998C14.4738 8.77998 13.7338 8.79998 13.2338 8.54665L9.73377 6.79332C9.53377 6.69332 9.14711 6.70665 8.94711 6.81332L6.06044 8.46665C5.84711 8.58665 5.64044 8.94665 5.64044 9.19332V15.68C5.64044 16.1 5.76044 16.4133 5.97378 16.5333C6.18711 16.66 6.52044 16.6067 6.88711 16.4L8.45377 15.5066C8.71377 15.3533 9.04711 15.28 9.37378 15.28Z" fill="#373F47"/>
<path d="M9.32056 15.8333C9.04722 15.8333 8.82056 15.6066 8.82056 15.3333V6.66663C8.82056 6.39329 9.04722 6.16663 9.32056 6.16663C9.59389 6.16663 9.82056 6.39329 9.82056 6.66663V15.3333C9.82056 15.6066 9.59389 15.8333 9.32056 15.8333Z" fill="#373F47"/>
<path d="M14.1004 17.8333C13.8271 17.8333 13.6004 17.6067 13.6004 17.3333V8.41333C13.6004 8.14 13.8271 7.91333 14.1004 7.91333C14.3738 7.91333 14.6004 8.14 14.6004 8.41333V17.3333C14.6004 17.6067 14.3738 17.8333 14.1004 17.8333Z" fill="#373F47"/>
</svg>
