<svg width="24" height="24" viewBox="0 0 24 24" fill="none" xmlns="http://www.w3.org/2000/svg">
<g opacity="0.9">
<path d="M12.3333 18.6668H6.71999C5.94666 18.6668 5.31332 18.0468 5.31332 17.2868V7.39342C5.31332 5.64676 6.61332 4.85342 8.20666 5.63342L11.1667 7.08676C11.8067 7.40009 12.3333 8.23342 12.3333 8.94009V18.6668Z" stroke="#373F47" stroke-linecap="round" stroke-linejoin="round"/>
<path d="M18.6466 14.04V16.56C18.6466 18 17.98 18.6667 16.54 18.6667H12.3333V10.9467L12.6466 11.0134L15.6466 11.6867L17 11.9867C17.88 12.18 18.6 12.6334 18.64 13.9134C18.6466 13.9534 18.6466 13.9934 18.6466 14.04Z" stroke="#373F47" stroke-linecap="round" stroke-linejoin="round"/>
<path d="M7.66666 10.0001H9.97999" stroke="#373F47" stroke-linecap="round" stroke-linejoin="round"/>
<path d="M7.66666 12.6667H9.97999" stroke="#373F47" stroke-linecap="round" stroke-linejoin="round"/>
<path d="M15.6466 11.6868V13.8334C15.6466 14.6601 14.9733 15.3334 14.1466 15.3334C13.32 15.3334 12.6466 14.6601 12.6466 13.8334V11.0134L15.6466 11.6868Z" stroke="#373F47" stroke-linecap="round" stroke-linejoin="round"/>
<path d="M18.64 13.9134C18.6 14.7 17.9466 15.3334 17.1466 15.3334C16.32 15.3334 15.6466 14.66 15.6466 13.8334V11.6867L17 11.9867C17.88 12.18 18.6 12.6334 18.64 13.9134Z" stroke="#373F47" stroke-linecap="round" stroke-linejoin="round"/>
</g>
</svg>
