<svg width="24" height="24" viewBox="0 0 24 24" fill="none" xmlns="http://www.w3.org/2000/svg">
<g opacity="0.9">
<path d="M18.6667 7.99998V9.61331C18.6667 10.6666 18 11.3333 16.9467 11.3333H14.6667V6.67331C14.6667 5.93331 15.2733 5.33331 16.0133 5.33331C16.74 5.33998 17.4067 5.63331 17.8867 6.11331C18.3667 6.59998 18.6667 7.26665 18.6667 7.99998Z" stroke="#373F47" stroke-miterlimit="10" stroke-linecap="round" stroke-linejoin="round"/>
<path d="M5.33334 8.66665V18C5.33334 18.5533 5.96001 18.8666 6.40001 18.5333L7.54001 17.68C7.80668 17.48 8.18001 17.5066 8.42001 17.7466L9.52668 18.86C9.78668 19.12 10.2133 19.12 10.4733 18.86L11.5933 17.74C11.8267 17.5066 12.2 17.48 12.46 17.68L13.6 18.5333C14.04 18.86 14.6667 18.5466 14.6667 18V6.66665C14.6667 5.93331 15.2667 5.33331 16 5.33331H8.66668H8.00001C6.00001 5.33331 5.33334 6.52665 5.33334 7.99998V8.66665Z" stroke="#373F47" stroke-miterlimit="10" stroke-linecap="round" stroke-linejoin="round"/>
<path d="M8.16666 10.6667H11.8333" stroke="#373F47" stroke-linecap="round" stroke-linejoin="round"/>
</g>
</svg>
