<svg width="24" height="24" viewBox="0 0 24 24" fill="none" xmlns="http://www.w3.org/2000/svg">
<g opacity="0.9">
<path d="M12 16.5C11.7267 16.5 11.5 16.2733 11.5 16V14C11.5 13.7267 11.7267 13.5 12 13.5C12.2733 13.5 12.5 13.7267 12.5 14V16C12.5 16.2733 12.2733 16.5 12 16.5Z" fill="#373F47"/>
<path d="M15.7333 19.04H8.26664C7.05331 19.04 5.94664 18.1067 5.74664 16.9133L4.85997 11.6C4.71331 10.7733 5.11997 9.71333 5.77997 9.18666L10.4 5.48666C11.2933 4.76666 12.7 4.77333 13.6 5.49333L18.22 9.18666C18.8733 9.71333 19.2733 10.7733 19.14 11.6L18.2533 16.9067C18.0533 18.0867 16.92 19.04 15.7333 19.04ZM11.9933 5.95333C11.64 5.95333 11.2866 6.05999 11.0266 6.26666L6.40664 9.97333C6.03331 10.2733 5.76664 10.9667 5.84664 11.44L6.73331 16.7467C6.85331 17.4467 7.55331 18.04 8.26664 18.04H15.7333C16.4466 18.04 17.1466 17.4467 17.2666 16.74L18.1533 11.4333C18.2266 10.9667 17.96 10.26 17.5933 9.96666L12.9733 6.27333C12.7066 6.05999 12.3466 5.95333 11.9933 5.95333Z" fill="#373F47"/>
</g>
</svg>
