<svg width="18" height="18" viewBox="0 0 18 18" fill="none" xmlns="http://www.w3.org/2000/svg">
    <path d="M9 9.5625C6.6225 9.5625 4.6875 7.6275 4.6875 5.25C4.6875 2.8725 6.6225 0.9375 9 0.9375C11.3775 0.9375 13.3125 2.8725 13.3125 5.25C13.3125 7.6275 11.3775 9.5625 9 9.5625ZM9 2.0625C7.245 2.0625 5.8125 3.495 5.8125 5.25C5.8125 7.005 7.245 8.4375 9 8.4375C10.755 8.4375 12.1875 7.005 12.1875 5.25C12.1875 3.495 10.755 2.0625 9 2.0625Z" fill="#717D8A"/>
    <path d="M11.865 17.0625C11.58 17.0625 11.31 16.9575 11.115 16.7625C10.8825 16.53 10.7775 16.1925 10.83 15.84L10.9725 14.8275C11.01 14.565 11.1675 14.2575 11.355 14.0625L14.01 11.4075C15.075 10.3425 16.0126 10.95 16.4701 11.4075C16.8601 11.7975 17.0625 12.2175 17.0625 12.6375C17.0625 13.065 16.8676 13.4625 16.4701 13.86L13.815 16.515C13.6275 16.7025 13.3126 16.8601 13.0501 16.8976L12.0375 17.04C11.9775 17.055 11.925 17.0625 11.865 17.0625ZM15.2325 11.94C15.0975 11.94 14.9775 12.03 14.805 12.2025L12.15 14.8575C12.1275 14.88 12.09 14.955 12.09 14.985L11.955 15.9225L12.8925 15.7875C12.9225 15.78 12.9975 15.7425 13.02 15.72L15.6751 13.065C15.7951 12.945 15.9375 12.7725 15.9375 12.6375C15.9375 12.525 15.8476 12.3675 15.6751 12.2025C15.4951 12.0225 15.36 11.94 15.2325 11.94Z" fill="#717D8A"/>
    <path d="M15.6901 14.415C15.6376 14.415 15.5851 14.4075 15.5401 14.3925C14.5501 14.115 13.7626 13.3275 13.4851 12.3375C13.4026 12.0375 13.5751 11.73 13.8751 11.6475C14.1751 11.565 14.4826 11.7375 14.5651 12.0375C14.7376 12.6525 15.2251 13.14 15.8401 13.3125C16.1401 13.395 16.3126 13.71 16.2301 14.0025C16.1626 14.25 15.9376 14.415 15.6901 14.415Z" fill="#717D8A"/>
    <path d="M2.55762 17.0625C2.25012 17.0625 1.99512 16.8075 1.99512 16.5C1.99512 13.2975 5.13764 10.6875 9.00014 10.6875C9.81764 10.6875 10.6276 10.8075 11.3851 11.0325C11.6851 11.1225 11.8501 11.4375 11.7601 11.73C11.6701 12.03 11.3551 12.195 11.0626 12.105C10.4026 11.91 9.71264 11.805 9.00014 11.805C5.76014 11.805 3.12012 13.905 3.12012 16.4925C3.12012 16.8075 2.86512 17.0625 2.55762 17.0625Z" fill="#717D8A"/>
    </svg>
    